<svg xmlns="http://www.w3.org/2000/svg" viewBox="0 0 251.22 91.39"><defs><style>.cls-1{fill:#58595b}.cls-2{fill:#19ace4}</style></defs><g id="Layer_2" data-name="Layer 2"><g id="Layer_1-2" data-name="Layer 1"><path class="cls-1" d="M114.11 11.73a8.67 8.67 0 011.79 2.61 7.88 7.88 0 01.64 3.2v11.84a8 8 0 01-.64 3.22 8.11 8.11 0 01-1.79 2.59 7.83 7.83 0 01-2.59 1.81 8 8 0 01-3.21.65H94a7.92 7.92 0 01-3.2-.65 8.3 8.3 0 01-2.6-1.78 7.93 7.93 0 01-2.43-5.81V17.54a7.88 7.88 0 01.64-3.2A8.6 8.6 0 0190.79 10 7.92 7.92 0 0194 9.3h14.32a8 8 0 015.8 2.43zm-2 5.85a3.85 3.85 0 00-.33-1.57 4.21 4.21 0 00-.88-1.29 4 4 0 00-1.28-.87 3.83 3.83 0 00-1.55-.31h-13.8a3.83 3.83 0 00-1.55.31 4 4 0 00-1.28.87 3.89 3.89 0 00-1.17 2.86v11.76a3.92 3.92 0 001.17 2.87 4.18 4.18 0 001.28.86 3.83 3.83 0 001.55.31H108a3.83 3.83 0 001.55-.31 4.18 4.18 0 001.28-.86 4.42 4.42 0 00.88-1.28 3.77 3.77 0 00.33-1.59zm34.83-8.28h4.51V31a6.84 6.84 0 01-.49 2.57 6.36 6.36 0 01-1.39 2.1 6.51 6.51 0 01-2.06 1.43 6.36 6.36 0 01-2.57.53 7.15 7.15 0 01-1.26-.1 6.35 6.35 0 01-1.14-.29 6 6 0 01-1.84-.94 6.86 6.86 0 01-1.35-1.3 15.65 15.65 0 01-.92-1.37 9.72 9.72 0 01-.47-.88c-.13-.28-.25-.52-.36-.73s-.32-.6-.57-1.1l-.88-1.76c-.34-.68-.7-1.43-1.08-2.24s-.78-1.63-1.19-2.47-.83-1.66-1.24-2.49l-1.14-2.36c-.35-.72-.66-1.35-.92-1.9l-.58-1.3c-.14-.29-.27-.56-.42-.82s-.28-.5-.41-.71a6.59 6.59 0 00-.63-.8 1.37 1.37 0 00-1.09-.49 2.48 2.48 0 00-1 .19 2.67 2.67 0 00-.7.47 2.49 2.49 0 00-.59 1.69v21.69h-4.51V15.93a6.61 6.61 0 011.76-4.67 6.67 6.67 0 012.06-1.43 6.53 6.53 0 012.65-.53 7.7 7.7 0 012.59.4 5 5 0 012.16 1.41 10.08 10.08 0 011.21 1.53c.26.39.53.82.79 1.29s.53 1 .82 1.57.82 1.69 1.45 2.94l2 3.94c.68 1.38 1.33 2.7 1.94 4s1.11 2.26 1.48 3a2.61 2.61 0 01.27.52.68.68 0 00.16.3c.21.37.38.69.53 1s.28.55.41.78.17.25.27.42a4.2 4.2 0 00.37.49 2.46 2.46 0 00.51.39 1.44 1.44 0 00.65.15 2.52 2.52 0 001-.19 1.94 1.94 0 00.67-.47 2.49 2.49 0 00.59-1.69zm17.14 24.08h12.23v4.24H163.8a8 8 0 01-3.21-.65 8.73 8.73 0 01-2.59-1.74 8.07 8.07 0 01-2.39-5.85V9.3H160v20a3.92 3.92 0 00.31 1.59 4 4 0 002.14 2.14 3.92 3.92 0 001.63.35zm15.57 4.24V9.3h4.47v28.32zM214.51 9.3H219V31a6.65 6.65 0 01-.49 2.57 6.49 6.49 0 01-6 4.06 7.11 7.11 0 01-1.25-.1 7.28 7.28 0 01-3-1.23 7.21 7.21 0 01-1.34-1.3 15.65 15.65 0 01-.92-1.37c-.18-.31-.34-.61-.47-.88l-.35-.73c-.13-.23-.32-.6-.57-1.1l-.88-1.76c-.34-.68-.7-1.43-1.08-2.24s-.78-1.63-1.2-2.47-.83-1.66-1.23-2.49-.79-1.59-1.14-2.31-.66-1.35-.92-1.9-.47-1-.63-1.3-.27-.56-.41-.82-.28-.5-.41-.71a7.78 7.78 0 00-.63-.8 1.4 1.4 0 00-1.1-.49 2.43 2.43 0 00-.94.19 2.74 2.74 0 00-.71.47 2.48 2.48 0 00-.58 1.69v21.64h-4.52V15.93a6.58 6.58 0 011.77-4.67 6.44 6.44 0 012.06-1.43 6.53 6.53 0 012.65-.53 7.64 7.64 0 012.58.4 5 5 0 012.16 1.41 10.08 10.08 0 011.22 1.53q.39.58.78 1.29c.26.47.54 1 .83 1.57s.82 1.69 1.45 2.94 1.28 2.57 2 3.94l1.94 4q.92 1.9 1.47 3a2.61 2.61 0 01.27.52 1 1 0 00.16.3c.21.37.39.69.53 1s.28.55.41.78.17.25.28.42a2.74 2.74 0 00.37.49 2 2 0 00.51.39 1.41 1.41 0 00.65.15 2.55 2.55 0 001-.19 1.9 1.9 0 00.66-.47 2.44 2.44 0 00.59-1.69zm16.87 28.32a8.17 8.17 0 01-8.24-8.24V17.54a8.22 8.22 0 01.63-3.22 7.83 7.83 0 011.76-2.59 8.61 8.61 0 012.63-1.73 8 8 0 013.22-.65H250v4.24h-18.35a4.08 4.08 0 00-3.73 2.41 3.92 3.92 0 00-.31 1.59v3.06H250v4.23h-22.39v4.47a3.92 3.92 0 00.31 1.59 4 4 0 00.87 1.28 3.9 3.9 0 002.86 1.17h19.57v4.24z"/><path class="cls-2" d="M33.94 69a31.05 31.05 0 00-23.26-10.52h-1a31 31 0 00-2.09-13.34A31 31 0 000 33.94 31.1 31.1 0 008 23a31.15 31.15 0 002.49-13.29c.65 0 1.3.06 2 .06a30.8 30.8 0 0011.4-2.18A31 31 0 0035.05 0 31 31 0 0046 7.94a30.84 30.84 0 0012.31 2.56h1A31.12 31.12 0 0069 35.05a31.08 31.08 0 00-10.5 24.23q-1-.06-2-.06A31.12 31.12 0 0033.94 69z"/><path d="M53 29.84v-7.51a2.18 2.18 0 10-4.33 0v5.8l-5.9 2.31 2.62-2.91a2.57 2.57 0 00.63-1.7v-9.62a2.18 2.18 0 10-4.33 0v8.63l-2.71 3a5.3 5.3 0 00-1.28-2.34 4.4 4.4 0 00.47-2 3.89 3.89 0 00-3.67-4.08 3.9 3.9 0 00-3.68 4.08 4.4 4.4 0 00.47 2A5.37 5.37 0 0030 27.83l-2.69-3v-8.62a2.3 2.3 0 00-2.17-2.41A2.3 2.3 0 0023 16.21v9.62a2.52 2.52 0 00.63 1.7l2.62 2.91-5.9-2.31v-5.8a2.3 2.3 0 00-2.17-2.4 2.29 2.29 0 00-2.18 2.4v7.51a2.41 2.41 0 001.44 2.27l6 2.36-6 2.36A2.41 2.41 0 0016 39.1v7.51A2.29 2.29 0 0018.16 49a2.3 2.3 0 002.17-2.4v-5.8l6.44-2.52L23.6 42a2.54 2.54 0 00-.6 1.66v9.13a2.18 2.18 0 104.33 0v-8.18l.88-1a6.6 6.6 0 006.28 6 6.61 6.61 0 006.28-6l.89 1v8.17a2.18 2.18 0 104.33 0v-9.13a2.6 2.6 0 00-.6-1.66l-3.18-3.71 6.45 2.52v5.81a2.18 2.18 0 104.33 0V39.1a2.4 2.4 0 00-1.45-2.27l-6-2.36 6-2.36A2.4 2.4 0 0053 29.84z" fill="#fff"/><path class="cls-2" d="M111.05 64.75h-6.43a4.69 4.69 0 01-2-.4 4.9 4.9 0 01-1.57-1.12 5 5 0 01-1.59 1.12 4.76 4.76 0 01-2 .4h-6.32a4.59 4.59 0 01-1.89-.38 4.73 4.73 0 01-1.55-1.05 4.54 4.54 0 01-1-1.53 5 5 0 01-.37-1.9V48h2.64v11.87a2.26 2.26 0 00.19.94 2.38 2.38 0 00.51.75 2.17 2.17 0 00.75.51 2.39 2.39 0 00.94.18h6.08a2.41 2.41 0 00.93-.18 2.21 2.21 0 00.76-.51 2.38 2.38 0 00.51-.75 2.26 2.26 0 00.19-.94V48h2.64v11.87a2.31 2.31 0 00.69 1.69 2.38 2.38 0 00.75.51 2.42 2.42 0 00.94.18h6.09a2.31 2.31 0 00.91-.18 2.17 2.17 0 00.75-.51 2.45 2.45 0 00.72-1.69V48h2.64v11.89a4.73 4.73 0 01-1.43 3.43 5 5 0 01-1.54 1.05 4.56 4.56 0 01-1.94.38zm9.03-4.56a2 2 0 00.23.75 3 3 0 00.44.62 2.29 2.29 0 001.69.69h9.65v2.5h-9.82a4.76 4.76 0 01-1.89-.37 4.38 4.38 0 01-1.53-1 4.83 4.83 0 01-1-1.55 4.65 4.65 0 01-.39-1.9v-2.26a4.57 4.57 0 01.39-1.89 4.86 4.86 0 011-1.53 4.54 4.54 0 011.53-1 4.94 4.94 0 011.89-.37h6.42a4.8 4.8 0 013.45 1.42 5 5 0 011 1.53 4.9 4.9 0 01.37 1.89v2.52zm.67-4.16a2.27 2.27 0 00-.51.75 2.18 2.18 0 00-.19.91h10.86a2.18 2.18 0 00-.19-.91 2.4 2.4 0 00-2.2-1.45h-6.08a2.26 2.26 0 00-1.69.67zm28.88-1.78a4.67 4.67 0 011 1.53 4.72 4.72 0 01.37 1.89v2.22a4.8 4.8 0 01-.37 1.9 4.65 4.65 0 01-1 1.55 4.75 4.75 0 01-3.42 1.41h-6.44a4.67 4.67 0 01-1.88-.37 4.86 4.86 0 01-2.58-2.59 4.8 4.8 0 01-.37-1.9V48h2.63v5.33a4.56 4.56 0 012.2-.54h6.44a4.85 4.85 0 011.88.37 4.9 4.9 0 011.54 1.09zm-1.22 3.44a2.19 2.19 0 00-.7-1.66 2.15 2.15 0 00-1.66-.7h-6.12a2.15 2.15 0 00-1.66.7 2.19 2.19 0 00-.7 1.66v2.18a2.32 2.32 0 00.7 1.69 2.18 2.18 0 001.66.69h6.12a2.27 2.27 0 001.66-.69 2.32 2.32 0 00.7-1.69zM168.19 48a9.06 9.06 0 013.45.66 9.32 9.32 0 012.83 1.78 8.52 8.52 0 011.9 2.65 7.86 7.86 0 01.69 3.27 7.74 7.74 0 01-.69 3.25 8.64 8.64 0 01-1.9 2.65 9.2 9.2 0 01-6.28 2.45h-5.64a5.36 5.36 0 01-1.72-.24 2.65 2.65 0 01-1.12-.72 2.73 2.73 0 01-.61-1.14 5.93 5.93 0 01-.19-1.53v-9.4a5.93 5.93 0 01.19-1.53 2.63 2.63 0 01.61-1.13 2.85 2.85 0 011.12-.72 5.06 5.06 0 011.72-.26zm-5.48 2.5a1.29 1.29 0 00-.73.28 1.07 1.07 0 00-.3.36 1 1 0 00-.13.52v9.4a1 1 0 00.13.54 1.07 1.07 0 00.3.36 1.16 1.16 0 00.38.2 1.82 1.82 0 00.35 0h5.35a6.73 6.73 0 002.47-.45 6.47 6.47 0 002-1.26A5.78 5.78 0 00174 58.7a5.55 5.55 0 000-4.56 6.09 6.09 0 00-1.38-1.86 6.7 6.7 0 00-4.51-1.74zm18.05 9.69a2.18 2.18 0 00.23.75 3.46 3.46 0 00.44.62 2.33 2.33 0 001.69.69h9.66v2.5H183a4.8 4.8 0 01-1.9-.37 4.43 4.43 0 01-1.52-1 5 5 0 01-1.06-1.55 4.81 4.81 0 01-.38-1.9v-2.26a4.73 4.73 0 01.38-1.89 5.06 5.06 0 011.06-1.53 4.6 4.6 0 011.52-1 5 5 0 011.9-.37h6.41a5 5 0 011.9.37 4.83 4.83 0 011.55 1 4.67 4.67 0 011 1.53 4.72 4.72 0 01.37 1.89v2.52zm.67-4.16a2.62 2.62 0 00-.51.75 2.34 2.34 0 00-.18.91h10.85a2.34 2.34 0 00-.18-.91 2.4 2.4 0 00-2.2-1.45h-6.09a2.3 2.3 0 00-1.69.67zm27.88 1.77a3.56 3.56 0 011.92 1.92 3.52 3.52 0 010 2.8 3.85 3.85 0 01-.77 1.16 3.66 3.66 0 01-1.15.78 3.31 3.31 0 01-1.4.29h-11.59v-2.5h11.59a1.07 1.07 0 00.79-.33 1.16 1.16 0 000-1.6 1.07 1.07 0 00-.79-.33H199a3.6 3.6 0 01-2.55-1.05 3.45 3.45 0 01-.76-1.14 3.5 3.5 0 01-.28-1.4 3.39 3.39 0 01.28-1.39 3.51 3.51 0 01.76-1.13 3.66 3.66 0 011.15-.78 3.47 3.47 0 011.4-.29h11.15v2.5H199a1.06 1.06 0 00-.78.31 1.1 1.1 0 00-.31.78 1.14 1.14 0 00.31.79 1.06 1.06 0 00.78.32h8.93a3.47 3.47 0 011.38.29zm3.6-9.8h2.64v2.6h-2.64zm2.64 4.77h-2.64v11.98h2.64zm4.56 13.49a2.36 2.36 0 002.38 2.38h5.67a2.29 2.29 0 001.69-.69 2.45 2.45 0 00.51-.74 2.18 2.18 0 00.19-.93v-2.06a4.66 4.66 0 01-2.22.53h-6.41a4.77 4.77 0 01-1.9-.37 4.38 4.38 0 01-1.53-1 4.83 4.83 0 01-1.05-1.55 4.65 4.65 0 01-.39-1.9v-2.26a4.57 4.57 0 01.39-1.89 4.86 4.86 0 011.05-1.53 4.54 4.54 0 011.53-1 5 5 0 011.9-.37h6.41a4.94 4.94 0 011.89.37 4.73 4.73 0 011.55 1 5 5 0 011 1.48 3.6 3.6 0 01.37 1.41v8.61a6.68 6.68 0 01-.37 2.36 4.77 4.77 0 01-4.49 3h-6a4.72 4.72 0 01-1.89-.37 4.87 4.87 0 01-1.54-1 4.8 4.8 0 01-1.41-3.45zm10.44-8.57a2.18 2.18 0 00-.19-.91 2.4 2.4 0 00-2.2-1.45h-6.08a2.4 2.4 0 00-2.2 1.45 2.18 2.18 0 00-.19.91v2.18a2.26 2.26 0 00.19.94 2.38 2.38 0 00.51.75 2.29 2.29 0 001.69.69h6.08a2.29 2.29 0 001.69-.69 2.38 2.38 0 00.51-.75 2.26 2.26 0 00.19-.94zm17.61 7.06v-7.06a2.29 2.29 0 00-.69-1.68 2.31 2.31 0 00-.76-.51 2.12 2.12 0 00-.91-.19h-6.11a2.15 2.15 0 00-.91.19 2.31 2.31 0 00-.78.5 2.29 2.29 0 00-.69 1.68v7.06h-2.64v-7.07a4.72 4.72 0 01.37-1.89 5 5 0 011-1.53 5.1 5.1 0 011.54-1.06 4.73 4.73 0 011.89-.38H246a4.73 4.73 0 011.89.38 5.1 5.1 0 011.54 1.06 4.83 4.83 0 011 1.53 4.72 4.72 0 01.37 1.89v7.08z"/><path class="cls-1" d="M59.28 84.7a6.78 6.78 0 01-2-4.86 6.37 6.37 0 01.12-1.36 10 10 0 019.59-8 7.3 7.3 0 014.88 1.77.56.56 0 01-.73.86A6.13 6.13 0 0067 71.63a8.91 8.91 0 00-8.49 7 7 7 0 00-.09 1.18c0 3.25 2.4 5.64 5.93 5.67A8.73 8.73 0 0069.13 84a.56.56 0 11.64.92 9.71 9.71 0 01-5.41 1.73 7.24 7.24 0 01-5.08-1.95zm25.07-3.6l-.53-.1.53.11a6.69 6.69 0 01-6.23 5.54 4.45 4.45 0 01-3.25-1.36 4.82 4.82 0 01-1.27-3.35 5.45 5.45 0 01.09-1 6.74 6.74 0 016.25-5.56 4.48 4.48 0 013.28 1.38A4.77 4.77 0 0184.44 80a5.55 5.55 0 01-.09 1.1zm-1-1.06a3.4 3.4 0 00-3.44-3.59 5.63 5.63 0 00-5.12 4.65 4.89 4.89 0 00-.07.83 3.38 3.38 0 003.43 3.62 5.61 5.61 0 005.14-4.65 5 5 0 00.07-.9zm13.2-.14v-.62a2.7 2.7 0 00-2.83-2.79 4.52 4.52 0 00-4.2 3.58L88.5 86.2v.23a.1.1 0 00-.07 0h-.27a.56.56 0 01-.44-.65l.78-5.88.69-4a.54.54 0 01.65-.44.53.53 0 01.46.62l-.16.9a5.43 5.43 0 013.62-1.54 3.87 3.87 0 012.83 1.13 3.82 3.82 0 011.11 2.76 4.59 4.59 0 01-.07.81l-1.08 6.06a.56.56 0 01-.55.44h-.07a.54.54 0 01-.44-.65zm12.27 10.82l1.1-6.25a6.26 6.26 0 01-4.56 2.12 4.48 4.48 0 01-3.3-1.36 4.67 4.67 0 01-1.31-3.32 4.87 4.87 0 01.09-1 6.73 6.73 0 016.32-5.51 4.47 4.47 0 013.29 1.36 4.71 4.71 0 01.69.92l.33-1.82a.56.56 0 01.64-.46.59.59 0 01.46.67l-2.65 14.87a.57.57 0 01-.55.46h-.09a.57.57 0 01-.46-.68zm1.75-9.82a6.2 6.2 0 00.07-.83 3.41 3.41 0 00-3.48-3.55 5.58 5.58 0 00-5.16 4.56l-.56-.09.56.09a4.81 4.81 0 00-.07.83 3.41 3.41 0 003.48 3.55 5.62 5.62 0 005.16-4.56zM125.6 76l-1.06 6.11a5.54 5.54 0 01-5.28 4.47 3.83 3.83 0 01-3.92-3.87 5.91 5.91 0 01.07-.81l1.09-6.08a.57.57 0 01.64-.46.53.53 0 01.42.64l-1.06 6.11a4.41 4.41 0 000 .6 2.68 2.68 0 002.81 2.77 4.47 4.47 0 004.2-3.58l1.08-6.08a.55.55 0 01.63-.46.52.52 0 01.38.64zm3.4 4.87a6.74 6.74 0 016.36-5.53 4.56 4.56 0 013.32 1.36A4.73 4.73 0 01140 80a5.85 5.85 0 010 .6v.14a.58.58 0 01-.53.44h-9.33a3.21 3.21 0 00-.05.69 3.44 3.44 0 003.53 3.6 5.38 5.38 0 004.08-2.08.56.56 0 01.78-.07.5.5 0 01.07.74 6.38 6.38 0 01-4.93 2.51 4.54 4.54 0 01-3.32-1.36 4.75 4.75 0 01-1.29-3.34 5.61 5.61 0 01-.01-1zm1.36-.78h8.53a3.45 3.45 0 00-3.53-3.59 5.58 5.58 0 00-5 3.59zM141.45 86l.9-5.07.9-5a.54.54 0 01.62-.46.55.55 0 01.44.64l-.39 2.28a.93.93 0 01.16-.18 6.46 6.46 0 014.92-2.82.55.55 0 01.56.55.56.56 0 01-.56.55 5.17 5.17 0 00-3.66 1.87 12.22 12.22 0 00-1.86 2.64.35.35 0 01-.07.14l-.88 5a.53.53 0 01-.55.46.15.15 0 01-.09 0 .51.51 0 01-.44-.6zm22.64-10.08a.55.55 0 01-.55.55h-3.09L159 84.72a.5.5 0 000 .17.57.57 0 00.62.59.57.57 0 110 1.13 1.74 1.74 0 01-1.24-.5 1.71 1.71 0 01-.51-1.22v-.35l1.48-8.07h-1.48a.56.56 0 01-.57-.55.57.57 0 01.57-.58h1.68l.72-4.4a.59.59 0 01.67-.46.58.58 0 01.46.64l-.72 4.22h2.91a.56.56 0 01.5.58zm.83 10.08l2.63-15a.57.57 0 011.13.18l-1 5.72a5.59 5.59 0 013.74-1.57 4.13 4.13 0 012.9 1.15 4 4 0 011.13 2.84 5.84 5.84 0 01-.06.81l-1.11 6.06a.57.57 0 01-.56.46h-.11a.54.54 0 01-.44-.64l1.14-6.01v-.62a2.77 2.77 0 00-2.9-2.86 4.6 4.6 0 00-4.31 3.67L166 86.2a.13.13 0 000 .09.08.08 0 000 .07h-.28a.59.59 0 01-.46-.53s-.36.17-.34.17zm12.96-5.13a6.76 6.76 0 016.37-5.53 4.58 4.58 0 013.32 1.36 4.73 4.73 0 011.31 3.3 3.94 3.94 0 010 .6v.14a.59.59 0 01-.53.44h-9.34a4 4 0 000 .69 3.44 3.44 0 003.53 3.6 5.4 5.4 0 004.08-2.08.56.56 0 01.78-.07.5.5 0 01.07.74 6.4 6.4 0 01-4.93 2.51 4.54 4.54 0 01-3.32-1.36 4.7 4.7 0 01-1.29-3.34 5.55 5.55 0 01-.05-1zm1.36-.78h8.53a3.44 3.44 0 00-3.52-3.59 5.6 5.6 0 00-5.01 3.59zm35.31-3.83l-6 10a.18.18 0 01-.09.1h-.45l-.14-.07h-.05l-.07-.07a.2.2 0 010-.09.28.28 0 010-.12L206 80l-3.74 6.29-.07.07c-.07.07 0 0 0 0h-.21c-.09 0 0 0 0 0h-.26l-.14-.07h-.05l-.07-.07a.18.18 0 010-.09s-.05-.07-.05-.12l-2.59-9.91a.54.54 0 111.06-.25l2.17 8.78 3.71-6.22a.5.5 0 01.46-.28.52.52 0 01.56.41l1.52 6.09 5.32-8.94a.54.54 0 01.74-.19.56.56 0 01.19.76zm2.45 4.61a6.75 6.75 0 016.36-5.53 4.58 4.58 0 013.33 1.36A4.73 4.73 0 01228 80a3.94 3.94 0 01-.05.6v.14a.6.6 0 01-.53.44H218a4 4 0 000 .69 3.44 3.44 0 003.52 3.6 5.37 5.37 0 004.08-2.08.57.57 0 01.79-.07.5.5 0 01.07.74 6.4 6.4 0 01-4.94 2.51 4.52 4.52 0 01-3.32-1.36 4.7 4.7 0 01-1.29-3.34 5.55 5.55 0 01.09-1zm1.36-.78h8.53a3.44 3.44 0 00-3.53-3.59 5.59 5.59 0 00-5.03 3.59zM231.08 86l2.63-15a.61.61 0 01.67-.47.59.59 0 01.46.67l-1.13 6.3a6.46 6.46 0 014.61-2.12 4.6 4.6 0 013.37 1.36 4.77 4.77 0 011.31 3.37 5 5 0 01-.09 1l-.55-.1.55.1a6.75 6.75 0 01-6.34 5.55 4.59 4.59 0 01-3.35-1.36 4.53 4.53 0 01-.67-.92l-.32 1.82a.56.56 0 01-.55.46h-.12a.56.56 0 01-.48-.66zm2-4.89a3.62 3.62 0 003.46 4.42 5.65 5.65 0 005.23-4.61 4.57 4.57 0 00.07-.83 3.41 3.41 0 00-3.53-3.59 5.66 5.66 0 00-5.22 4.63zm14.42 4.58l-.09.53a.56.56 0 01-.55.46h-.09a.56.56 0 01-.47-.66l.1-.54a.57.57 0 01.6-.48.59.59 0 01.5.69zm2.56-14.48L248 82.79a.56.56 0 01-.55.46h-.09a.58.58 0 01-.47-.67L249 71a.57.57 0 01.64-.47.6.6 0 01.42.68z"/></g></g></svg>