<svg xmlns="http://www.w3.org/2000/svg" viewBox="0 0 113.9 25.65">
  <g id="Layer_2" data-name="Layer 2">
    <g id="Layer_1-2" data-name="Layer 1">
      <path d="M0,25.65H25.65V0H0ZM20.71,10.36H15.29V4.94h5.42ZM4.94,4.94h5.42V15.29H20.71v5.42H4.94ZM42.35,0A12.83,12.83,0,1,0,55.18,12.83,12.82,12.82,0,0,0,42.35,0Zm0,20.71a7.89,7.89,0,1,1,7.89-7.88A7.89,7.89,0,0,1,42.35,20.71ZM101.07,0A12.83,12.83,0,1,0,113.9,12.83h0A12.85,12.85,0,0,0,101.07,0Zm0,20.71A7.89,7.89,0,1,1,109,12.82h0A7.89,7.89,0,0,1,101.07,20.71ZM71.71,0A12.83,12.83,0,1,0,84.54,12.83h0A12.85,12.85,0,0,0,71.71,0Zm0,20.71A7.89,7.89,0,1,1,79.2,10.36H71.71v4.93H79.2A7.9,7.9,0,0,1,71.71,20.71Z" style="fill: #0F0F0F"/>
    </g>
  </g>
</svg>
